<svg viewBox="0 0 120 120" xmlns="http://www.w3.org/2000/svg">
  <path d="M 86.86 64.09 L 109.69 67.72 A 5.40 5.40 0 0 1 106.90 78.16 L 85.30 69.89 A 3.00 3.00 0 0 1 86.86 64.09 Z" fill="#E5744F"/>
  <path d="M 81.21 76.97 L 92.81 85.17 A 5.40 5.40 0 0 1 85.17 92.81 L 76.97 81.21 A 3.00 3.00 0 0 1 81.21 76.97 Z" fill="#E5744F"/>
  <path d="M 69.89 85.30 L 77.90 105.93 A 5.40 5.40 0 0 1 67.47 108.73 L 64.09 86.86 A 3.00 3.00 0 0 1 69.89 85.30 Z" fill="#E5744F"/>
  <path d="M 55.91 86.86 L 54.86 100.03 A 5.40 5.40 0 0 1 44.43 97.24 L 50.11 85.30 A 3.00 3.00 0 0 1 55.91 86.86 Z" fill="#E5744F"/>
  <path d="M 43.03 81.21 L 27.76 99.88 A 5.40 5.40 0 0 1 20.12 92.24 L 38.79 76.97 A 3.00 3.00 0 0 1 43.03 81.21 Z" fill="#E5744F"/>
  <path d="M 34.70 69.89 L 23.73 75.31 A 5.40 5.40 0 0 1 20.93 64.88 L 33.14 64.09 A 3.00 3.00 0 0 1 34.70 69.89 Z" fill="#E5744F"/>
  <path d="M 33.14 55.91 L 10.31 52.28 A 5.40 5.40 0 0 1 13.10 41.84 L 34.70 50.11 A 3.00 3.00 0 0 1 33.14 55.91 Z" fill="#E5744F"/>
  <path d="M 38.79 43.03 L 26.48 34.12 A 5.40 5.40 0 0 1 34.12 26.48 L 43.03 38.79 A 3.00 3.00 0 0 1 38.79 43.03 Z" fill="#E5744F"/>
  <path d="M 50.11 34.70 L 42.10 14.07 A 5.40 5.40 0 0 1 52.53 11.27 L 55.91 33.14 A 3.00 3.00 0 0 1 50.11 34.70 Z" fill="#E5744F"/>
  <path d="M 64.09 33.14 L 65.14 19.97 A 5.40 5.40 0 0 1 75.57 22.76 L 69.89 34.70 A 3.00 3.00 0 0 1 64.09 33.14 Z" fill="#E5744F"/>
  <path d="M 76.97 38.79 L 92.24 20.12 A 5.40 5.40 0 0 1 99.88 27.76 L 81.21 43.03 A 3.00 3.00 0 0 1 76.97 38.79 Z" fill="#E5744F"/>
  <path d="M 85.30 50.11 L 98.21 44.17 A 5.40 5.40 0 0 1 101.00 54.60 L 86.86 55.91 A 3.00 3.00 0 0 1 85.30 50.11 Z" fill="#E5744F"/>
  <path d="M 74.5 49.5 A 18 18 0 1 0 74.5 70.5" fill="none" stroke="#E5744F" stroke-width="9" stroke-linecap="round"/>
</svg>